%TF.GenerationSoftware,KiCad,Pcbnew,8.0.8-8.0.8-0~ubuntu24.04.1*%
%TF.CreationDate,2025-01-23T16:14:34-05:00*%
%TF.ProjectId,40 Keyboard,3430204b-6579-4626-9f61-72642e6b6963,4*%
%TF.SameCoordinates,Original*%
%TF.FileFunction,Soldermask,Bot*%
%TF.FilePolarity,Negative*%
%FSLAX46Y46*%
G04 Gerber Fmt 4.6, Leading zero omitted, Abs format (unit mm)*
G04 Created by KiCad (PCBNEW 8.0.8-8.0.8-0~ubuntu24.04.1) date 2025-01-23 16:14:34*
%MOMM*%
%LPD*%
G01*
G04 APERTURE LIST*
G04 Aperture macros list*
%AMRoundRect*
0 Rectangle with rounded corners*
0 $1 Rounding radius*
0 $2 $3 $4 $5 $6 $7 $8 $9 X,Y pos of 4 corners*
0 Add a 4 corners polygon primitive as box body*
4,1,4,$2,$3,$4,$5,$6,$7,$8,$9,$2,$3,0*
0 Add four circle primitives for the rounded corners*
1,1,$1+$1,$2,$3*
1,1,$1+$1,$4,$5*
1,1,$1+$1,$6,$7*
1,1,$1+$1,$8,$9*
0 Add four rect primitives between the rounded corners*
20,1,$1+$1,$2,$3,$4,$5,0*
20,1,$1+$1,$4,$5,$6,$7,0*
20,1,$1+$1,$6,$7,$8,$9,0*
20,1,$1+$1,$8,$9,$2,$3,0*%
G04 Aperture macros list end*
%ADD10C,1.700000*%
%ADD11C,4.000000*%
%ADD12C,2.200000*%
%ADD13O,1.152400X2.352400*%
%ADD14O,1.152400X1.952400*%
%ADD15R,1.700000X1.700000*%
%ADD16O,1.700000X1.700000*%
%ADD17RoundRect,0.225000X-0.375000X0.225000X-0.375000X-0.225000X0.375000X-0.225000X0.375000X0.225000X0*%
%ADD18RoundRect,0.250000X-0.400000X-0.625000X0.400000X-0.625000X0.400000X0.625000X-0.400000X0.625000X0*%
%ADD19RoundRect,0.250000X0.400000X0.625000X-0.400000X0.625000X-0.400000X-0.625000X0.400000X-0.625000X0*%
%ADD20RoundRect,0.225000X0.375000X-0.225000X0.375000X0.225000X-0.375000X0.225000X-0.375000X-0.225000X0*%
%ADD21R,2.000000X7.875000*%
%ADD22RoundRect,0.250000X-0.650000X0.412500X-0.650000X-0.412500X0.650000X-0.412500X0.650000X0.412500X0*%
%ADD23RoundRect,0.250000X0.650000X-0.325000X0.650000X0.325000X-0.650000X0.325000X-0.650000X-0.325000X0*%
%ADD24RoundRect,0.102000X0.750000X0.250000X-0.750000X0.250000X-0.750000X-0.250000X0.750000X-0.250000X0*%
%ADD25RoundRect,0.102000X0.250000X0.750000X-0.250000X0.750000X-0.250000X-0.750000X0.250000X-0.750000X0*%
%ADD26R,1.500000X1.000000*%
%ADD27RoundRect,0.250000X0.650000X-0.412500X0.650000X0.412500X-0.650000X0.412500X-0.650000X-0.412500X0*%
%ADD28C,0.600000*%
%ADD29C,0.800000*%
G04 APERTURE END LIST*
D10*
%TO.C,SW8*%
X153870000Y-78000000D03*
D11*
X158950000Y-78000000D03*
D10*
X164030000Y-78000000D03*
D12*
X161490000Y-72920000D03*
X155140000Y-75460000D03*
%TD*%
D10*
%TO.C,SW42*%
X179995000Y-135250000D03*
D11*
X185075000Y-135250000D03*
D10*
X190155000Y-135250000D03*
D12*
X187615000Y-130170000D03*
X181265000Y-132710000D03*
%TD*%
D10*
%TO.C,SW6*%
X115870000Y-78000000D03*
D11*
X120950000Y-78000000D03*
D10*
X126030000Y-78000000D03*
D12*
X123490000Y-72920000D03*
X117140000Y-75460000D03*
%TD*%
D10*
%TO.C,SW41*%
X118245000Y-135250000D03*
D11*
X123325000Y-135250000D03*
D10*
X128405000Y-135250000D03*
D12*
X125865000Y-130170000D03*
X119515000Y-132710000D03*
%TD*%
D10*
%TO.C,SW31*%
X149120000Y-116000000D03*
D11*
X154200000Y-116000000D03*
D10*
X159280000Y-116000000D03*
D12*
X156740000Y-110920000D03*
X150390000Y-113460000D03*
%TD*%
D10*
%TO.C,SW20*%
X158620000Y-97000000D03*
D11*
X163700000Y-97000000D03*
D10*
X168780000Y-97000000D03*
D12*
X166240000Y-91920000D03*
X159890000Y-94460000D03*
%TD*%
D10*
%TO.C,SW19*%
X139620000Y-97000000D03*
D11*
X144700000Y-97000000D03*
D10*
X149780000Y-97000000D03*
D12*
X147240000Y-91920000D03*
X140890000Y-94460000D03*
%TD*%
D10*
%TO.C,SW44*%
X248870000Y-78000000D03*
D11*
X253950000Y-78000000D03*
D10*
X259030000Y-78000000D03*
D12*
X256490000Y-72920000D03*
X250140000Y-75460000D03*
%TD*%
%TO.C,REF\u002A\u002A*%
X168300000Y-86400000D03*
%TD*%
D10*
%TO.C,SW24*%
X241745000Y-97000000D03*
D11*
X246825000Y-97000000D03*
D10*
X251905000Y-97000000D03*
D12*
X249365000Y-91920000D03*
X243015000Y-94460000D03*
%TD*%
D10*
%TO.C,SW21*%
X177620000Y-97000000D03*
D11*
X182700000Y-97000000D03*
D10*
X187780000Y-97000000D03*
D12*
X185240000Y-91920000D03*
X178890000Y-94460000D03*
%TD*%
D10*
%TO.C,SW34*%
X206120000Y-116000000D03*
D11*
X211200000Y-116000000D03*
D10*
X216280000Y-116000000D03*
D12*
X213740000Y-110920000D03*
X207390000Y-113460000D03*
%TD*%
D10*
%TO.C,SW15*%
X63620000Y-97000000D03*
D11*
X68700000Y-97000000D03*
D10*
X73780000Y-97000000D03*
D12*
X71240000Y-91920000D03*
X64890000Y-94460000D03*
%TD*%
D10*
%TO.C,SW13*%
X22920000Y-97000000D03*
D11*
X28000000Y-97000000D03*
D10*
X33080000Y-97000000D03*
D12*
X30540000Y-91920000D03*
X24190000Y-94460000D03*
%TD*%
D10*
%TO.C,SW12*%
X229870000Y-78000000D03*
D11*
X234950000Y-78000000D03*
D10*
X240030000Y-78000000D03*
D12*
X237490000Y-72920000D03*
X231140000Y-75460000D03*
%TD*%
%TO.C,REF\u002A\u002A*%
X78200000Y-93300000D03*
%TD*%
D10*
%TO.C,SW17*%
X101620000Y-97000000D03*
D11*
X106700000Y-97000000D03*
D10*
X111780000Y-97000000D03*
D12*
X109240000Y-91920000D03*
X102890000Y-94460000D03*
%TD*%
D10*
%TO.C,SW38*%
X44620000Y-135250000D03*
D11*
X49700000Y-135250000D03*
D10*
X54780000Y-135250000D03*
D12*
X52240000Y-130170000D03*
X45890000Y-132710000D03*
%TD*%
%TO.C,REF\u002A\u002A*%
X19800000Y-111500000D03*
%TD*%
D10*
%TO.C,SW46*%
X203745000Y-135000000D03*
D11*
X208825000Y-135000000D03*
D10*
X213905000Y-135000000D03*
D12*
X211365000Y-129920000D03*
X205015000Y-132460000D03*
%TD*%
D10*
%TO.C,SW45*%
X225120000Y-135000000D03*
D11*
X230200000Y-135000000D03*
D10*
X235280000Y-135000000D03*
D12*
X232740000Y-129920000D03*
X226390000Y-132460000D03*
%TD*%
D10*
%TO.C,SW35*%
X225120000Y-116000000D03*
D11*
X230200000Y-116000000D03*
D10*
X235280000Y-116000000D03*
D12*
X232740000Y-110920000D03*
X226390000Y-113460000D03*
%TD*%
D10*
%TO.C,SW48*%
X246495000Y-135000000D03*
D11*
X251575000Y-135000000D03*
D10*
X256655000Y-135000000D03*
D12*
X254115000Y-129920000D03*
X247765000Y-132460000D03*
%TD*%
D10*
%TO.C,SW39*%
X65995000Y-135250000D03*
D11*
X71075000Y-135250000D03*
D10*
X76155000Y-135250000D03*
D12*
X73615000Y-130170000D03*
X67265000Y-132710000D03*
%TD*%
%TO.C,REF\u002A\u002A*%
X241600000Y-113900000D03*
%TD*%
D10*
%TO.C,SW18*%
X120620000Y-97000000D03*
D11*
X125700000Y-97000000D03*
D10*
X130780000Y-97000000D03*
D12*
X128240000Y-91920000D03*
X121890000Y-94460000D03*
%TD*%
D10*
%TO.C,SW11*%
X210870000Y-78000000D03*
D11*
X215950000Y-78000000D03*
D10*
X221030000Y-78000000D03*
D12*
X218490000Y-72920000D03*
X212140000Y-75460000D03*
%TD*%
D10*
%TO.C,SW33*%
X187120000Y-116000000D03*
D11*
X192200000Y-116000000D03*
D10*
X197280000Y-116000000D03*
D12*
X194740000Y-110920000D03*
X188390000Y-113460000D03*
%TD*%
D10*
%TO.C,SW9*%
X172870000Y-78000000D03*
D11*
X177950000Y-78000000D03*
D10*
X183030000Y-78000000D03*
D12*
X180490000Y-72920000D03*
X174140000Y-75460000D03*
%TD*%
D10*
%TO.C,SW10*%
X191870000Y-78000000D03*
D11*
X196950000Y-78000000D03*
D10*
X202030000Y-78000000D03*
D12*
X199490000Y-72920000D03*
X193140000Y-75460000D03*
%TD*%
D10*
%TO.C,SW36*%
X246495000Y-116000000D03*
D11*
X251575000Y-116000000D03*
D10*
X256655000Y-116000000D03*
D12*
X254115000Y-110920000D03*
X247765000Y-113460000D03*
%TD*%
D10*
%TO.C,SW40*%
X89745000Y-135250000D03*
D11*
X94825000Y-135250000D03*
D10*
X99905000Y-135250000D03*
D12*
X97365000Y-130170000D03*
X91015000Y-132710000D03*
%TD*%
%TO.C,REF\u002A\u002A*%
X148300000Y-106400000D03*
%TD*%
D10*
%TO.C,SW5*%
X96870000Y-78000000D03*
D11*
X101950000Y-78000000D03*
D10*
X107030000Y-78000000D03*
D12*
X104490000Y-72920000D03*
X98140000Y-75460000D03*
%TD*%
D10*
%TO.C,SW14*%
X44620000Y-97025000D03*
D11*
X49700000Y-97025000D03*
D10*
X54780000Y-97025000D03*
D12*
X52240000Y-91945000D03*
X45890000Y-94485000D03*
%TD*%
D10*
%TO.C,SW32*%
X168120000Y-116000000D03*
D11*
X173200000Y-116000000D03*
D10*
X178280000Y-116000000D03*
D12*
X175740000Y-110920000D03*
X169390000Y-113460000D03*
%TD*%
%TO.C,REF\u002A\u002A*%
X83200000Y-134400000D03*
%TD*%
D10*
%TO.C,SW27*%
X73120000Y-116000000D03*
D11*
X78200000Y-116000000D03*
D10*
X83280000Y-116000000D03*
D12*
X80740000Y-110920000D03*
X74390000Y-113460000D03*
%TD*%
%TO.C,REF\u002A\u002A*%
X35200000Y-71000000D03*
%TD*%
D10*
%TO.C,SW7*%
X134870000Y-78000000D03*
D11*
X139950000Y-78000000D03*
D10*
X145030000Y-78000000D03*
D12*
X142490000Y-72920000D03*
X136140000Y-75460000D03*
%TD*%
D10*
%TO.C,SW29*%
X111120000Y-116000000D03*
D11*
X116200000Y-116000000D03*
D10*
X121280000Y-116000000D03*
D12*
X118740000Y-110920000D03*
X112390000Y-113460000D03*
%TD*%
%TO.C,REF\u002A\u002A*%
X266100000Y-79500000D03*
%TD*%
D10*
%TO.C,SW25*%
X27995000Y-116150000D03*
D11*
X33075000Y-116150000D03*
D10*
X38155000Y-116150000D03*
D12*
X35615000Y-111070000D03*
X29265000Y-113610000D03*
%TD*%
%TO.C,REF\u002A\u002A*%
X264600000Y-132800000D03*
%TD*%
D10*
%TO.C,SW2*%
X39870000Y-78000000D03*
D11*
X44950000Y-78000000D03*
D10*
X50030000Y-78000000D03*
D12*
X47490000Y-72920000D03*
X41140000Y-75460000D03*
%TD*%
D10*
%TO.C,SW28*%
X92120000Y-116000000D03*
D11*
X97200000Y-116000000D03*
D10*
X102280000Y-116000000D03*
D12*
X99740000Y-110920000D03*
X93390000Y-113460000D03*
%TD*%
D10*
%TO.C,SW23*%
X215620000Y-97000000D03*
D11*
X220700000Y-97000000D03*
D10*
X225780000Y-97000000D03*
D12*
X223240000Y-91920000D03*
X216890000Y-94460000D03*
%TD*%
D10*
%TO.C,SW3*%
X58870000Y-78000000D03*
D11*
X63950000Y-78000000D03*
D10*
X69030000Y-78000000D03*
D12*
X66490000Y-72920000D03*
X60140000Y-75460000D03*
%TD*%
D13*
%TO.C,J1*%
X276520000Y-70575000D03*
X267880000Y-70575000D03*
D14*
X276520000Y-74575000D03*
X267880000Y-74575000D03*
%TD*%
D10*
%TO.C,SW4*%
X77870000Y-78000000D03*
D11*
X82950000Y-78000000D03*
D10*
X88030000Y-78000000D03*
D12*
X85490000Y-72920000D03*
X79140000Y-75460000D03*
%TD*%
%TO.C,REF\u002A\u002A*%
X45900000Y-112700000D03*
%TD*%
D10*
%TO.C,SW22*%
X196620000Y-97000000D03*
D11*
X201700000Y-97000000D03*
D10*
X206780000Y-97000000D03*
D12*
X204240000Y-91920000D03*
X197890000Y-94460000D03*
%TD*%
D15*
%TO.C,U1*%
X273900000Y-138800000D03*
D16*
X273900000Y-141340000D03*
X271360000Y-138800000D03*
X271360000Y-141340000D03*
X268820000Y-138800000D03*
X268820000Y-141340000D03*
%TD*%
D12*
%TO.C,REF\u002A\u002A*%
X138200000Y-133100000D03*
%TD*%
D10*
%TO.C,SW1*%
X20870000Y-78000000D03*
D11*
X25950000Y-78000000D03*
D10*
X31030000Y-78000000D03*
D12*
X28490000Y-72920000D03*
X22140000Y-75460000D03*
%TD*%
D10*
%TO.C,SW43*%
X151495000Y-135250000D03*
D11*
X156575000Y-135250000D03*
D10*
X161655000Y-135250000D03*
D12*
X159115000Y-130170000D03*
X152765000Y-132710000D03*
%TD*%
D10*
%TO.C,SW16*%
X82620000Y-97000000D03*
D11*
X87700000Y-97000000D03*
D10*
X92780000Y-97000000D03*
D12*
X90240000Y-91920000D03*
X83890000Y-94460000D03*
%TD*%
D10*
%TO.C,SW30*%
X130120000Y-116000000D03*
D11*
X135200000Y-116000000D03*
D10*
X140280000Y-116000000D03*
D12*
X137740000Y-110920000D03*
X131390000Y-113460000D03*
%TD*%
D10*
%TO.C,SW37*%
X23245000Y-135250000D03*
D11*
X28325000Y-135250000D03*
D10*
X33405000Y-135250000D03*
D12*
X30865000Y-130170000D03*
X24515000Y-132710000D03*
%TD*%
D10*
%TO.C,SW26*%
X54120000Y-116000000D03*
D11*
X59200000Y-116000000D03*
D10*
X64280000Y-116000000D03*
D12*
X61740000Y-110920000D03*
X55390000Y-113460000D03*
%TD*%
D17*
%TO.C,D32*%
X153200000Y-107700000D03*
X153200000Y-111000000D03*
%TD*%
%TO.C,D37*%
X250600000Y-107900000D03*
X250600000Y-111200000D03*
%TD*%
D18*
%TO.C,R10*%
X182400000Y-82600000D03*
X185500000Y-82600000D03*
%TD*%
D17*
%TO.C,D25*%
X245900000Y-88600000D03*
X245900000Y-91900000D03*
%TD*%
%TO.C,D1*%
X250100000Y-126600000D03*
X250100000Y-129900000D03*
%TD*%
D19*
%TO.C,R25*%
X152500000Y-101600000D03*
X149400000Y-101600000D03*
%TD*%
D17*
%TO.C,D24*%
X219700000Y-88700000D03*
X219700000Y-92000000D03*
%TD*%
D19*
%TO.C,R30*%
X254200000Y-101700000D03*
X251100000Y-101700000D03*
%TD*%
D20*
%TO.C,D10*%
X169500000Y-76200000D03*
X169500000Y-72900000D03*
%TD*%
D19*
%TO.C,R49*%
X192600000Y-139900000D03*
X189500000Y-139900000D03*
%TD*%
D20*
%TO.C,D3*%
X36600000Y-76300000D03*
X36600000Y-73000000D03*
%TD*%
%TO.C,D6*%
X93500000Y-76200000D03*
X93500000Y-72900000D03*
%TD*%
D19*
%TO.C,R24*%
X133400000Y-101600000D03*
X130300000Y-101600000D03*
%TD*%
D20*
%TO.C,D9*%
X151300000Y-76200000D03*
X151300000Y-72900000D03*
%TD*%
D18*
%TO.C,R13*%
X239100000Y-82600000D03*
X242200000Y-82600000D03*
%TD*%
D21*
%TO.C,Y1*%
X273400000Y-106525000D03*
X273400000Y-118400000D03*
%TD*%
D17*
%TO.C,D47*%
X207500000Y-126700000D03*
X207500000Y-130000000D03*
%TD*%
%TO.C,D40*%
X70000000Y-126900000D03*
X70000000Y-130200000D03*
%TD*%
D18*
%TO.C,R5*%
X87400000Y-82500000D03*
X90500000Y-82500000D03*
%TD*%
D17*
%TO.C,D16*%
X67300000Y-88700000D03*
X67300000Y-92000000D03*
%TD*%
D19*
%TO.C,R39*%
X199800000Y-120500000D03*
X196700000Y-120500000D03*
%TD*%
D17*
%TO.C,D30*%
X115200000Y-107600000D03*
X115200000Y-110900000D03*
%TD*%
D18*
%TO.C,R9*%
X163500000Y-82500000D03*
X166600000Y-82500000D03*
%TD*%
D19*
%TO.C,R51*%
X237800000Y-139700000D03*
X234700000Y-139700000D03*
%TD*%
%TO.C,R15*%
X35300000Y-101600000D03*
X32200000Y-101600000D03*
%TD*%
D17*
%TO.C,D36*%
X229200000Y-107700000D03*
X229200000Y-111000000D03*
%TD*%
%TO.C,D39*%
X48700000Y-126900000D03*
X48700000Y-130200000D03*
%TD*%
%TO.C,D43*%
X183700000Y-126900000D03*
X183700000Y-130200000D03*
%TD*%
D19*
%TO.C,R21*%
X76100000Y-101600000D03*
X73000000Y-101600000D03*
%TD*%
D18*
%TO.C,R12*%
X220500000Y-82500000D03*
X223600000Y-82500000D03*
%TD*%
%TO.C,R4*%
X68300000Y-82600000D03*
X71400000Y-82600000D03*
%TD*%
D17*
%TO.C,D27*%
X58100000Y-107600000D03*
X58100000Y-110900000D03*
%TD*%
%TO.C,D18*%
X105600000Y-88600000D03*
X105600000Y-91900000D03*
%TD*%
D20*
%TO.C,D13*%
X226400000Y-76200000D03*
X226400000Y-72900000D03*
%TD*%
D18*
%TO.C,R2*%
X30100000Y-82500000D03*
X33200000Y-82500000D03*
%TD*%
%TO.C,R7*%
X125500000Y-82500000D03*
X128600000Y-82500000D03*
%TD*%
D20*
%TO.C,D5*%
X75000000Y-76200000D03*
X75000000Y-72900000D03*
%TD*%
%TO.C,D4*%
X55900000Y-76200000D03*
X55900000Y-72900000D03*
%TD*%
D18*
%TO.C,R11*%
X201400000Y-82600000D03*
X204500000Y-82600000D03*
%TD*%
D19*
%TO.C,R37*%
X161700000Y-120500000D03*
X158600000Y-120500000D03*
%TD*%
D22*
%TO.C,C6*%
X269000000Y-106600000D03*
X269000000Y-109725000D03*
%TD*%
D18*
%TO.C,R3*%
X49000000Y-82500000D03*
X52100000Y-82500000D03*
%TD*%
D17*
%TO.C,D38*%
X27500000Y-126900000D03*
X27500000Y-130200000D03*
%TD*%
%TO.C,D19*%
X124500000Y-88600000D03*
X124500000Y-91900000D03*
%TD*%
%TO.C,D28*%
X77100000Y-107600000D03*
X77100000Y-110900000D03*
%TD*%
D19*
%TO.C,R46*%
X102400000Y-139900000D03*
X99300000Y-139900000D03*
%TD*%
D18*
%TO.C,R6*%
X106300000Y-82500000D03*
X109400000Y-82500000D03*
%TD*%
D17*
%TO.C,D23*%
X199900000Y-88600000D03*
X199900000Y-91900000D03*
%TD*%
D19*
%TO.C,R50*%
X216200000Y-139900000D03*
X213100000Y-139900000D03*
%TD*%
%TO.C,R44*%
X57100000Y-139900000D03*
X54000000Y-139900000D03*
%TD*%
D17*
%TO.C,D42*%
X122100000Y-126900000D03*
X122100000Y-130200000D03*
%TD*%
D19*
%TO.C,R47*%
X130900000Y-139900000D03*
X127800000Y-139900000D03*
%TD*%
D23*
%TO.C,C7*%
X275300000Y-95100000D03*
X275300000Y-92150000D03*
%TD*%
D17*
%TO.C,D44*%
X155100000Y-126900000D03*
X155100000Y-130200000D03*
%TD*%
D19*
%TO.C,R40*%
X219000000Y-120700000D03*
X215900000Y-120700000D03*
%TD*%
D17*
%TO.C,D46*%
X228600000Y-126600000D03*
X228600000Y-129900000D03*
%TD*%
%TO.C,D29*%
X96200000Y-107600000D03*
X96200000Y-110900000D03*
%TD*%
D19*
%TO.C,R32*%
X66600000Y-120700000D03*
X63500000Y-120700000D03*
%TD*%
D17*
%TO.C,D31*%
X134100000Y-107700000D03*
X134100000Y-111000000D03*
%TD*%
%TO.C,D41*%
X92800000Y-126800000D03*
X92800000Y-130100000D03*
%TD*%
D19*
%TO.C,R42*%
X259000000Y-120600000D03*
X255900000Y-120600000D03*
%TD*%
%TO.C,R26*%
X171100000Y-101600000D03*
X168000000Y-101600000D03*
%TD*%
D20*
%TO.C,D2*%
X18700000Y-76200000D03*
X18700000Y-72900000D03*
%TD*%
D19*
%TO.C,R33*%
X85500000Y-120600000D03*
X82400000Y-120600000D03*
%TD*%
%TO.C,R1*%
X259100000Y-139600000D03*
X256000000Y-139600000D03*
%TD*%
%TO.C,R45*%
X78500000Y-139900000D03*
X75400000Y-139900000D03*
%TD*%
D17*
%TO.C,D35*%
X210000000Y-107700000D03*
X210000000Y-111000000D03*
%TD*%
%TO.C,D14*%
X27100000Y-88600000D03*
X27100000Y-91900000D03*
%TD*%
D19*
%TO.C,R38*%
X180600000Y-120500000D03*
X177500000Y-120500000D03*
%TD*%
D20*
%TO.C,D11*%
X188800000Y-76300000D03*
X188800000Y-73000000D03*
%TD*%
D19*
%TO.C,R34*%
X104400000Y-120700000D03*
X101300000Y-120700000D03*
%TD*%
D17*
%TO.C,D22*%
X181700000Y-88700000D03*
X181700000Y-92000000D03*
%TD*%
%TO.C,D33*%
X172000000Y-107700000D03*
X172000000Y-111000000D03*
%TD*%
D19*
%TO.C,R28*%
X209400000Y-101500000D03*
X206300000Y-101500000D03*
%TD*%
%TO.C,R31*%
X40700000Y-120900000D03*
X37600000Y-120900000D03*
%TD*%
D20*
%TO.C,D7*%
X112900000Y-76200000D03*
X112900000Y-72900000D03*
%TD*%
D19*
%TO.C,R22*%
X95200000Y-101600000D03*
X92100000Y-101600000D03*
%TD*%
%TO.C,R23*%
X114300000Y-101600000D03*
X111200000Y-101600000D03*
%TD*%
%TO.C,R41*%
X237700000Y-120500000D03*
X234600000Y-120500000D03*
%TD*%
D24*
%TO.C,U2*%
X271400000Y-91100000D03*
X271400000Y-91900000D03*
X271400000Y-92700000D03*
X271400000Y-93500000D03*
X271400000Y-94300000D03*
X271400000Y-95100000D03*
X271400000Y-95900000D03*
X271400000Y-96700000D03*
X271400000Y-97500000D03*
X271400000Y-98300000D03*
X271400000Y-99100000D03*
D25*
X269500000Y-101000000D03*
X268700000Y-101000000D03*
X267900000Y-101000000D03*
X267100000Y-101000000D03*
X266300000Y-101000000D03*
X265500000Y-101000000D03*
X264700000Y-101000000D03*
X263900000Y-101000000D03*
X263100000Y-101000000D03*
X262300000Y-101000000D03*
X261500000Y-101000000D03*
D24*
X259600000Y-99100000D03*
X259600000Y-98300000D03*
X259600000Y-97500000D03*
X259600000Y-96700000D03*
X259600000Y-95900000D03*
X259600000Y-95100000D03*
X259600000Y-94300000D03*
X259600000Y-93500000D03*
X259600000Y-92700000D03*
X259600000Y-91900000D03*
X259600000Y-91100000D03*
D25*
X261500000Y-89200000D03*
X262300000Y-89200000D03*
X263100000Y-89200000D03*
X263900000Y-89200000D03*
X264700000Y-89200000D03*
X265500000Y-89200000D03*
X266300000Y-89200000D03*
X267100000Y-89200000D03*
X267900000Y-89200000D03*
X268700000Y-89200000D03*
X269500000Y-89200000D03*
%TD*%
D17*
%TO.C,D17*%
X86400000Y-88700000D03*
X86400000Y-92000000D03*
%TD*%
%TO.C,D21*%
X162800000Y-88700000D03*
X162800000Y-92000000D03*
%TD*%
D18*
%TO.C,R8*%
X144500000Y-82600000D03*
X147600000Y-82600000D03*
%TD*%
D19*
%TO.C,R43*%
X35700000Y-139900000D03*
X32600000Y-139900000D03*
%TD*%
D20*
%TO.C,D45*%
X245700000Y-76300000D03*
X245700000Y-73000000D03*
%TD*%
%TO.C,D12*%
X207300000Y-76200000D03*
X207300000Y-72900000D03*
%TD*%
D26*
%TO.C,J5*%
X264100000Y-119500000D03*
X264100000Y-120800000D03*
%TD*%
D17*
%TO.C,D15*%
X48400000Y-88600000D03*
X48400000Y-91900000D03*
%TD*%
D19*
%TO.C,R48*%
X164300000Y-139900000D03*
X161200000Y-139900000D03*
%TD*%
%TO.C,R36*%
X142600000Y-120600000D03*
X139500000Y-120600000D03*
%TD*%
%TO.C,R35*%
X123700000Y-120700000D03*
X120600000Y-120700000D03*
%TD*%
D17*
%TO.C,D20*%
X143600000Y-88700000D03*
X143600000Y-92000000D03*
%TD*%
D20*
%TO.C,D8*%
X132000000Y-76200000D03*
X132000000Y-72900000D03*
%TD*%
D19*
%TO.C,R20*%
X57400000Y-101600000D03*
X54300000Y-101600000D03*
%TD*%
%TO.C,R29*%
X228600000Y-101600000D03*
X225500000Y-101600000D03*
%TD*%
D27*
%TO.C,C5*%
X269000000Y-116700000D03*
X269000000Y-113575000D03*
%TD*%
D19*
%TO.C,R14*%
X260700000Y-82600000D03*
X257600000Y-82600000D03*
%TD*%
D17*
%TO.C,D26*%
X32000000Y-107800000D03*
X32000000Y-111100000D03*
%TD*%
%TO.C,D34*%
X190900000Y-107700000D03*
X190900000Y-111000000D03*
%TD*%
D19*
%TO.C,R27*%
X190400000Y-101600000D03*
X187300000Y-101600000D03*
%TD*%
D28*
X267900000Y-104400000D03*
D29*
X274500000Y-71500000D03*
D28*
X264900000Y-124100000D03*
X194600000Y-86900000D03*
X148800000Y-86900000D03*
X39300000Y-134900000D03*
X264100000Y-76200000D03*
X233200000Y-98500000D03*
X98500000Y-81900000D03*
X58800000Y-86800000D03*
X87300000Y-113500000D03*
X127400000Y-124800000D03*
X60700000Y-135200000D03*
X265500000Y-95100000D03*
X271500000Y-112100000D03*
X266800000Y-108000000D03*
X244200000Y-79600000D03*
X106800000Y-113600000D03*
X96800000Y-94400000D03*
X141400000Y-136100000D03*
X28400000Y-105400000D03*
X193000000Y-81400000D03*
X135300000Y-93600000D03*
X271100000Y-127900000D03*
X225400000Y-78900000D03*
X116900000Y-86800000D03*
X55600000Y-80200000D03*
X156800000Y-82300000D03*
X259200000Y-104400000D03*
X87800000Y-105700000D03*
X265600000Y-92000000D03*
X173100000Y-94300000D03*
X172500000Y-134700000D03*
X239600000Y-113100000D03*
X30600000Y-124600000D03*
X236200000Y-106700000D03*
X219800000Y-134100000D03*
X173700000Y-81500000D03*
X268700000Y-99000000D03*
X268700000Y-103800000D03*
X272600000Y-134000000D03*
X262400000Y-93700000D03*
X275700000Y-132550000D03*
X276400000Y-97800000D03*
X275300000Y-99700000D03*
X256800000Y-89300000D03*
X256300000Y-126300000D03*
X251100000Y-82200000D03*
X252200000Y-87300000D03*
X256200000Y-102300000D03*
X258500000Y-110300000D03*
X95000000Y-81700000D03*
X108900000Y-119900000D03*
X248100000Y-110100000D03*
X99100000Y-98100000D03*
X257500000Y-100100000D03*
X100700000Y-101700000D03*
X229900000Y-93500000D03*
X131000000Y-78600000D03*
X135900000Y-97900000D03*
X146200000Y-119900000D03*
X133100000Y-82400000D03*
X239900000Y-94200000D03*
X135900000Y-101100000D03*
X111500000Y-78400000D03*
X116900000Y-97000000D03*
X119200000Y-101100000D03*
X113600000Y-82300000D03*
X247500000Y-105200000D03*
X231900000Y-94000000D03*
X41700000Y-82800000D03*
X44600000Y-99400000D03*
X49900000Y-119800000D03*
X60140000Y-82000000D03*
X69700000Y-120000000D03*
X63700000Y-101400000D03*
X263500000Y-129100000D03*
X266300000Y-126300000D03*
X75100000Y-78400000D03*
X83700000Y-101700000D03*
X76100000Y-82400000D03*
X89600000Y-119500000D03*
X151100000Y-78500000D03*
X155400000Y-97800000D03*
X155500000Y-101200000D03*
X152700000Y-82600000D03*
X254000000Y-95800000D03*
X228300000Y-104300000D03*
X174300000Y-97700000D03*
X254200000Y-104100000D03*
X171100000Y-82100000D03*
X255500000Y-95100000D03*
X169100000Y-78600000D03*
X184000000Y-120100000D03*
X192600000Y-106200000D03*
X175600000Y-101400000D03*
X241100000Y-107000000D03*
X249700000Y-89500000D03*
X203000000Y-119800000D03*
X191700000Y-93200000D03*
X194100000Y-100900000D03*
X243000000Y-85700000D03*
X189200000Y-82500000D03*
X209600000Y-86100000D03*
X189200000Y-79200000D03*
X221900000Y-119700000D03*
X208700000Y-79000000D03*
X250300000Y-88500000D03*
X213400000Y-101500000D03*
X213100000Y-97600000D03*
X232800000Y-87000000D03*
X245100000Y-87000000D03*
X209600000Y-82600000D03*
X241600000Y-119700000D03*
X269500000Y-102700000D03*
X242000000Y-100600000D03*
X230600000Y-82700000D03*
X272400000Y-72500000D03*
X271800000Y-73600000D03*
X273100000Y-89200000D03*
X273800000Y-89800000D03*
X32800000Y-80500000D03*
X50600000Y-81000000D03*
X255300000Y-137800000D03*
X70500000Y-80800000D03*
X89300000Y-80800000D03*
X107900000Y-80700000D03*
X126900000Y-80700000D03*
X145900000Y-81000000D03*
X165000000Y-80900000D03*
X184100000Y-81100000D03*
X202800000Y-81100000D03*
X221700000Y-81000000D03*
X240400000Y-81100000D03*
X256600000Y-81100000D03*
X31500000Y-99900000D03*
X53400000Y-100200000D03*
X72600000Y-100100000D03*
X91700000Y-100000000D03*
X110000000Y-100000000D03*
X129400000Y-100100000D03*
X148500000Y-100000000D03*
X167200000Y-100100000D03*
X187000000Y-99800000D03*
X206300000Y-99700000D03*
X223800000Y-100500000D03*
X249700000Y-101700000D03*
X37400000Y-119100000D03*
X62700000Y-119100000D03*
X81500000Y-118700000D03*
X100900000Y-118700000D03*
X119900000Y-118800000D03*
X138900000Y-118800000D03*
X157700000Y-118700000D03*
X176000000Y-120600000D03*
X195200000Y-120500000D03*
X214300000Y-120600000D03*
X233200000Y-120500000D03*
X254500000Y-120600000D03*
X31400000Y-138500000D03*
X53200000Y-138100000D03*
X74600000Y-138100000D03*
X98500000Y-138200000D03*
X126800000Y-138200000D03*
X160200000Y-138100000D03*
X188700000Y-138100000D03*
X212300000Y-138000000D03*
X234000000Y-137800000D03*
X35700000Y-129700000D03*
X40700000Y-105900000D03*
X230400000Y-103000000D03*
X40700000Y-109400000D03*
X35900000Y-86900000D03*
X240800000Y-103100000D03*
X35900000Y-89900000D03*
X35800000Y-125100000D03*
M02*
