M48
; DRILL file {KiCad 8.0.8-8.0.8-0~ubuntu24.04.1} date 2025-01-23T16:14:26-0500
; FORMAT={-:-/ absolute / metric / decimal}
; #@! TF.CreationDate,2025-01-23T16:14:26-05:00
; #@! TF.GenerationSoftware,Kicad,Pcbnew,8.0.8-8.0.8-0~ubuntu24.04.1
; #@! TF.FileFunction,Plated,1,2,PTH
FMAT,2
METRIC
; #@! TA.AperFunction,Plated,PTH,ViaDrill
T1C0.300
; #@! TA.AperFunction,Plated,PTH,ComponentDrill
T2C0.600
; #@! TA.AperFunction,Plated,PTH,ComponentDrill
T3C1.000
; #@! TA.AperFunction,Plated,PTH,ComponentDrill
T4C1.500
%
G90
G05
T1
X28.4Y-105.4
X30.6Y-124.6
X31.4Y-138.5
X31.5Y-99.9
X32.8Y-80.5
X35.7Y-129.7
X35.8Y-125.1
X35.9Y-86.9
X35.9Y-89.9
X37.4Y-119.1
X39.3Y-134.9
X40.7Y-105.9
X40.7Y-109.4
X41.7Y-82.8
X44.6Y-99.4
X49.9Y-119.8
X50.6Y-81.0
X53.2Y-138.1
X53.4Y-100.2
X55.6Y-80.2
X58.8Y-86.8
X60.14Y-82.0
X60.7Y-135.2
X62.7Y-119.1
X63.7Y-101.4
X69.7Y-120.0
X70.5Y-80.8
X72.6Y-100.1
X74.6Y-138.1
X75.1Y-78.4
X76.1Y-82.4
X81.5Y-118.7
X83.7Y-101.7
X87.3Y-113.5
X87.8Y-105.7
X89.3Y-80.8
X89.6Y-119.5
X91.7Y-100.0
X95.0Y-81.7
X96.8Y-94.4
X98.5Y-81.9
X98.5Y-138.2
X99.1Y-98.1
X100.7Y-101.7
X100.9Y-118.7
X106.8Y-113.6
X107.9Y-80.7
X108.9Y-119.9
X110.0Y-100.0
X111.5Y-78.4
X113.6Y-82.3
X116.9Y-86.8
X116.9Y-97.0
X119.2Y-101.1
X119.9Y-118.8
X126.8Y-138.2
X126.9Y-80.7
X127.4Y-124.8
X129.4Y-100.1
X131.0Y-78.6
X133.1Y-82.4
X135.3Y-93.6
X135.9Y-97.9
X135.9Y-101.1
X138.9Y-118.8
X141.4Y-136.1
X145.9Y-81.0
X146.2Y-119.9
X148.5Y-100.0
X148.8Y-86.9
X151.1Y-78.5
X152.7Y-82.6
X155.4Y-97.8
X155.5Y-101.2
X156.8Y-82.3
X157.7Y-118.7
X160.2Y-138.1
X165.0Y-80.9
X167.2Y-100.1
X169.1Y-78.6
X171.1Y-82.1
X172.5Y-134.7
X173.1Y-94.3
X173.7Y-81.5
X174.3Y-97.7
X175.6Y-101.4
X176.0Y-120.6
X184.0Y-120.1
X184.1Y-81.1
X187.0Y-99.8
X188.7Y-138.1
X189.2Y-79.2
X189.2Y-82.5
X191.7Y-93.2
X192.6Y-106.2
X193.0Y-81.4
X194.1Y-100.9
X194.6Y-86.9
X195.2Y-120.5
X202.8Y-81.1
X203.0Y-119.8
X206.3Y-99.7
X208.7Y-79.0
X209.6Y-82.6
X209.6Y-86.1
X212.3Y-138.0
X213.1Y-97.6
X213.4Y-101.5
X214.3Y-120.6
X219.8Y-134.1
X221.7Y-81.0
X221.9Y-119.7
X223.8Y-100.5
X225.4Y-78.9
X228.3Y-104.3
X229.9Y-93.5
X230.4Y-103.0
X230.6Y-82.7
X231.9Y-94.0
X232.8Y-87.0
X233.2Y-98.5
X233.2Y-120.5
X234.0Y-137.8
X236.2Y-106.7
X239.6Y-113.1
X239.9Y-94.2
X240.4Y-81.1
X240.8Y-103.1
X241.1Y-107.0
X241.6Y-119.7
X242.0Y-100.6
X243.0Y-85.7
X244.2Y-79.6
X245.1Y-87.0
X247.5Y-105.2
X248.1Y-110.1
X249.7Y-89.5
X249.7Y-101.7
X250.3Y-88.5
X251.1Y-82.2
X252.2Y-87.3
X254.0Y-95.8
X254.2Y-104.1
X254.5Y-120.6
X255.3Y-137.8
X255.5Y-95.1
X256.2Y-102.3
X256.3Y-126.3
X256.6Y-81.1
X256.8Y-89.3
X257.5Y-100.1
X258.5Y-110.3
X259.2Y-104.4
X262.4Y-93.7
X263.5Y-129.1
X264.1Y-76.2
X264.9Y-124.1
X265.5Y-95.1
X265.6Y-92.0
X266.3Y-126.3
X266.8Y-108.0
X267.9Y-104.4
X268.7Y-99.0
X268.7Y-103.8
X269.5Y-102.7
X271.1Y-127.9
X271.5Y-112.1
X271.8Y-73.6
X272.4Y-72.5
X272.6Y-134.0
X273.1Y-89.2
X273.8Y-89.8
X274.5Y-71.5
X275.3Y-99.7
X275.7Y-132.55
X276.4Y-97.8
T3
X268.82Y-138.8
X268.82Y-141.34
X271.36Y-138.8
X271.36Y-141.34
X273.9Y-138.8
X273.9Y-141.34
T4
X22.14Y-75.46
X24.19Y-94.46
X24.515Y-132.71
X28.49Y-72.92
X29.265Y-113.61
X30.54Y-91.92
X30.865Y-130.17
X35.615Y-111.07
X41.14Y-75.46
X45.89Y-94.485
X45.89Y-132.71
X47.49Y-72.92
X52.24Y-91.945
X52.24Y-130.17
X55.39Y-113.46
X60.14Y-75.46
X61.74Y-110.92
X64.89Y-94.46
X66.49Y-72.92
X67.265Y-132.71
X71.24Y-91.92
X73.615Y-130.17
X74.39Y-113.46
X79.14Y-75.46
X80.74Y-110.92
X83.89Y-94.46
X85.49Y-72.92
X90.24Y-91.92
X91.015Y-132.71
X93.39Y-113.46
X97.365Y-130.17
X98.14Y-75.46
X99.74Y-110.92
X102.89Y-94.46
X104.49Y-72.92
X109.24Y-91.92
X112.39Y-113.46
X117.14Y-75.46
X118.74Y-110.92
X119.515Y-132.71
X121.89Y-94.46
X123.49Y-72.92
X125.865Y-130.17
X128.24Y-91.92
X131.39Y-113.46
X136.14Y-75.46
X137.74Y-110.92
X140.89Y-94.46
X142.49Y-72.92
X147.24Y-91.92
X150.39Y-113.46
X152.765Y-132.71
X155.14Y-75.46
X156.74Y-110.92
X159.115Y-130.17
X159.89Y-94.46
X161.49Y-72.92
X166.24Y-91.92
X169.39Y-113.46
X174.14Y-75.46
X175.74Y-110.92
X178.89Y-94.46
X180.49Y-72.92
X181.265Y-132.71
X185.24Y-91.92
X187.615Y-130.17
X188.39Y-113.46
X193.14Y-75.46
X194.74Y-110.92
X197.89Y-94.46
X199.49Y-72.92
X204.24Y-91.92
X205.015Y-132.46
X207.39Y-113.46
X211.365Y-129.92
X212.14Y-75.46
X213.74Y-110.92
X216.89Y-94.46
X218.49Y-72.92
X223.24Y-91.92
X226.39Y-113.46
X226.39Y-132.46
X231.14Y-75.46
X232.74Y-110.92
X232.74Y-129.92
X237.49Y-72.92
X243.015Y-94.46
X247.765Y-113.46
X247.765Y-132.46
X249.365Y-91.92
X250.14Y-75.46
X254.115Y-110.92
X254.115Y-129.92
X256.49Y-72.92
T2
G00X267.88Y-71.175
M15
G01X267.88Y-69.975
M16
G05
G00X267.88Y-74.975
M15
G01X267.88Y-74.175
M16
G05
G00X276.52Y-71.175
M15
G01X276.52Y-69.975
M16
G05
G00X276.52Y-74.975
M15
G01X276.52Y-74.175
M16
G05
M30
