M48
; DRILL file {KiCad 8.0.8-8.0.8-0~ubuntu24.04.1} date 2025-01-23T16:14:26-0500
; FORMAT={-:-/ absolute / metric / decimal}
; #@! TF.CreationDate,2025-01-23T16:14:26-05:00
; #@! TF.GenerationSoftware,Kicad,Pcbnew,8.0.8-8.0.8-0~ubuntu24.04.1
; #@! TF.FileFunction,NonPlated,1,2,NPTH
FMAT,2
METRIC
; #@! TA.AperFunction,NonPlated,NPTH,ComponentDrill
T1C1.700
; #@! TA.AperFunction,NonPlated,NPTH,ComponentDrill
T2C2.200
; #@! TA.AperFunction,NonPlated,NPTH,ComponentDrill
T3C4.000
%
G90
G05
T1
X20.87Y-78.0
X22.92Y-97.0
X23.245Y-135.25
X27.995Y-116.15
X31.03Y-78.0
X33.08Y-97.0
X33.405Y-135.25
X38.155Y-116.15
X39.87Y-78.0
X44.62Y-97.025
X44.62Y-135.25
X50.03Y-78.0
X54.12Y-116.0
X54.78Y-97.025
X54.78Y-135.25
X58.87Y-78.0
X63.62Y-97.0
X64.28Y-116.0
X65.995Y-135.25
X69.03Y-78.0
X73.12Y-116.0
X73.78Y-97.0
X76.155Y-135.25
X77.87Y-78.0
X82.62Y-97.0
X83.28Y-116.0
X88.03Y-78.0
X89.745Y-135.25
X92.12Y-116.0
X92.78Y-97.0
X96.87Y-78.0
X99.905Y-135.25
X101.62Y-97.0
X102.28Y-116.0
X107.03Y-78.0
X111.12Y-116.0
X111.78Y-97.0
X115.87Y-78.0
X118.245Y-135.25
X120.62Y-97.0
X121.28Y-116.0
X126.03Y-78.0
X128.405Y-135.25
X130.12Y-116.0
X130.78Y-97.0
X134.87Y-78.0
X139.62Y-97.0
X140.28Y-116.0
X145.03Y-78.0
X149.12Y-116.0
X149.78Y-97.0
X151.495Y-135.25
X153.87Y-78.0
X158.62Y-97.0
X159.28Y-116.0
X161.655Y-135.25
X164.03Y-78.0
X168.12Y-116.0
X168.78Y-97.0
X172.87Y-78.0
X177.62Y-97.0
X178.28Y-116.0
X179.995Y-135.25
X183.03Y-78.0
X187.12Y-116.0
X187.78Y-97.0
X190.155Y-135.25
X191.87Y-78.0
X196.62Y-97.0
X197.28Y-116.0
X202.03Y-78.0
X203.745Y-135.0
X206.12Y-116.0
X206.78Y-97.0
X210.87Y-78.0
X213.905Y-135.0
X215.62Y-97.0
X216.28Y-116.0
X221.03Y-78.0
X225.12Y-116.0
X225.12Y-135.0
X225.78Y-97.0
X229.87Y-78.0
X235.28Y-116.0
X235.28Y-135.0
X240.03Y-78.0
X241.745Y-97.0
X246.495Y-116.0
X246.495Y-135.0
X248.87Y-78.0
X251.905Y-97.0
X256.655Y-116.0
X256.655Y-135.0
X259.03Y-78.0
T2
X19.8Y-111.5
X35.2Y-71.0
X45.9Y-112.7
X78.2Y-93.3
X83.2Y-134.4
X138.2Y-133.1
X148.3Y-106.4
X168.3Y-86.4
X241.6Y-113.9
X264.6Y-132.8
X266.1Y-79.5
T3
X25.95Y-78.0
X28.0Y-97.0
X28.325Y-135.25
X33.075Y-116.15
X44.95Y-78.0
X49.7Y-97.025
X49.7Y-135.25
X59.2Y-116.0
X63.95Y-78.0
X68.7Y-97.0
X71.075Y-135.25
X78.2Y-116.0
X82.95Y-78.0
X87.7Y-97.0
X94.825Y-135.25
X97.2Y-116.0
X101.95Y-78.0
X106.7Y-97.0
X116.2Y-116.0
X120.95Y-78.0
X123.325Y-135.25
X125.7Y-97.0
X135.2Y-116.0
X139.95Y-78.0
X144.7Y-97.0
X154.2Y-116.0
X156.575Y-135.25
X158.95Y-78.0
X163.7Y-97.0
X173.2Y-116.0
X177.95Y-78.0
X182.7Y-97.0
X185.075Y-135.25
X192.2Y-116.0
X196.95Y-78.0
X201.7Y-97.0
X208.825Y-135.0
X211.2Y-116.0
X215.95Y-78.0
X220.7Y-97.0
X230.2Y-116.0
X230.2Y-135.0
X234.95Y-78.0
X246.825Y-97.0
X251.575Y-116.0
X251.575Y-135.0
X253.95Y-78.0
M30
