%TF.GenerationSoftware,KiCad,Pcbnew,8.0.8-8.0.8-0~ubuntu24.04.1*%
%TF.CreationDate,2025-01-23T16:14:34-05:00*%
%TF.ProjectId,40 Keyboard,3430204b-6579-4626-9f61-72642e6b6963,4*%
%TF.SameCoordinates,Original*%
%TF.FileFunction,Soldermask,Top*%
%TF.FilePolarity,Negative*%
%FSLAX46Y46*%
G04 Gerber Fmt 4.6, Leading zero omitted, Abs format (unit mm)*
G04 Created by KiCad (PCBNEW 8.0.8-8.0.8-0~ubuntu24.04.1) date 2025-01-23 16:14:34*
%MOMM*%
%LPD*%
G01*
G04 APERTURE LIST*
G04 Aperture macros list*
%AMRoundRect*
0 Rectangle with rounded corners*
0 $1 Rounding radius*
0 $2 $3 $4 $5 $6 $7 $8 $9 X,Y pos of 4 corners*
0 Add a 4 corners polygon primitive as box body*
4,1,4,$2,$3,$4,$5,$6,$7,$8,$9,$2,$3,0*
0 Add four circle primitives for the rounded corners*
1,1,$1+$1,$2,$3*
1,1,$1+$1,$4,$5*
1,1,$1+$1,$6,$7*
1,1,$1+$1,$8,$9*
0 Add four rect primitives between the rounded corners*
20,1,$1+$1,$2,$3,$4,$5,0*
20,1,$1+$1,$4,$5,$6,$7,0*
20,1,$1+$1,$6,$7,$8,$9,0*
20,1,$1+$1,$8,$9,$2,$3,0*%
G04 Aperture macros list end*
%ADD10C,0.010000*%
%ADD11RoundRect,0.250001X-0.462499X-0.624999X0.462499X-0.624999X0.462499X0.624999X-0.462499X0.624999X0*%
%ADD12R,1.000000X1.500000*%
%ADD13C,1.700000*%
%ADD14C,4.000000*%
%ADD15C,2.200000*%
%ADD16RoundRect,0.250000X0.650000X-0.412500X0.650000X0.412500X-0.650000X0.412500X-0.650000X-0.412500X0*%
%ADD17RoundRect,0.250000X-0.625000X0.312500X-0.625000X-0.312500X0.625000X-0.312500X0.625000X0.312500X0*%
%ADD18O,1.152400X2.352400*%
%ADD19O,1.152400X1.952400*%
%ADD20R,1.700000X1.700000*%
%ADD21O,1.700000X1.700000*%
%ADD22C,0.600000*%
%ADD23C,0.800000*%
G04 APERTURE END LIST*
D10*
%TO.C,J1*%
X269358500Y-75788500D02*
X268641500Y-75788500D01*
X268641500Y-74511500D01*
X269358500Y-74511500D01*
X269358500Y-75788500D01*
G36*
X269358500Y-75788500D02*
G01*
X268641500Y-75788500D01*
X268641500Y-74511500D01*
X269358500Y-74511500D01*
X269358500Y-75788500D01*
G37*
X270158500Y-75788500D02*
X269441500Y-75788500D01*
X269441500Y-74511500D01*
X270158500Y-74511500D01*
X270158500Y-75788500D01*
G36*
X270158500Y-75788500D02*
G01*
X269441500Y-75788500D01*
X269441500Y-74511500D01*
X270158500Y-74511500D01*
X270158500Y-75788500D01*
G37*
X270662500Y-75788500D02*
X270237500Y-75788500D01*
X270237500Y-74511500D01*
X270662500Y-74511500D01*
X270662500Y-75788500D01*
G36*
X270662500Y-75788500D02*
G01*
X270237500Y-75788500D01*
X270237500Y-74511500D01*
X270662500Y-74511500D01*
X270662500Y-75788500D01*
G37*
X271162500Y-75788500D02*
X270737500Y-75788500D01*
X270737500Y-74511500D01*
X271162500Y-74511500D01*
X271162500Y-75788500D01*
G36*
X271162500Y-75788500D02*
G01*
X270737500Y-75788500D01*
X270737500Y-74511500D01*
X271162500Y-74511500D01*
X271162500Y-75788500D01*
G37*
X271662500Y-75788500D02*
X271237500Y-75788500D01*
X271237500Y-74511500D01*
X271662500Y-74511500D01*
X271662500Y-75788500D01*
G36*
X271662500Y-75788500D02*
G01*
X271237500Y-75788500D01*
X271237500Y-74511500D01*
X271662500Y-74511500D01*
X271662500Y-75788500D01*
G37*
X272162500Y-75788500D02*
X271737500Y-75788500D01*
X271737500Y-74511500D01*
X272162500Y-74511500D01*
X272162500Y-75788500D01*
G36*
X272162500Y-75788500D02*
G01*
X271737500Y-75788500D01*
X271737500Y-74511500D01*
X272162500Y-74511500D01*
X272162500Y-75788500D01*
G37*
X272662500Y-75788500D02*
X272237500Y-75788500D01*
X272237500Y-74511500D01*
X272662500Y-74511500D01*
X272662500Y-75788500D01*
G36*
X272662500Y-75788500D02*
G01*
X272237500Y-75788500D01*
X272237500Y-74511500D01*
X272662500Y-74511500D01*
X272662500Y-75788500D01*
G37*
X273162500Y-75788500D02*
X272737500Y-75788500D01*
X272737500Y-74511500D01*
X273162500Y-74511500D01*
X273162500Y-75788500D01*
G36*
X273162500Y-75788500D02*
G01*
X272737500Y-75788500D01*
X272737500Y-74511500D01*
X273162500Y-74511500D01*
X273162500Y-75788500D01*
G37*
X273662500Y-75788500D02*
X273237500Y-75788500D01*
X273237500Y-74511500D01*
X273662500Y-74511500D01*
X273662500Y-75788500D01*
G36*
X273662500Y-75788500D02*
G01*
X273237500Y-75788500D01*
X273237500Y-74511500D01*
X273662500Y-74511500D01*
X273662500Y-75788500D01*
G37*
X274162500Y-75788500D02*
X273737500Y-75788500D01*
X273737500Y-74511500D01*
X274162500Y-74511500D01*
X274162500Y-75788500D01*
G36*
X274162500Y-75788500D02*
G01*
X273737500Y-75788500D01*
X273737500Y-74511500D01*
X274162500Y-74511500D01*
X274162500Y-75788500D01*
G37*
X274958500Y-75788500D02*
X274241500Y-75788500D01*
X274241500Y-74511500D01*
X274958500Y-74511500D01*
X274958500Y-75788500D01*
G36*
X274958500Y-75788500D02*
G01*
X274241500Y-75788500D01*
X274241500Y-74511500D01*
X274958500Y-74511500D01*
X274958500Y-75788500D01*
G37*
X275758500Y-75788500D02*
X275041500Y-75788500D01*
X275041500Y-74511500D01*
X275758500Y-74511500D01*
X275758500Y-75788500D01*
G36*
X275758500Y-75788500D02*
G01*
X275041500Y-75788500D01*
X275041500Y-74511500D01*
X275758500Y-74511500D01*
X275758500Y-75788500D01*
G37*
%TD*%
D11*
%TO.C,D60*%
X233425000Y-82600000D03*
X236400000Y-82600000D03*
%TD*%
%TO.C,D89*%
X93325000Y-139900000D03*
X96300000Y-139900000D03*
%TD*%
D12*
%TO.C,J3*%
X268500000Y-96600000D03*
X267200000Y-96600000D03*
%TD*%
D13*
%TO.C,SW8*%
X153870000Y-78000000D03*
D14*
X158950000Y-78000000D03*
D13*
X164030000Y-78000000D03*
D15*
X161490000Y-72920000D03*
X155140000Y-75460000D03*
%TD*%
D13*
%TO.C,SW42*%
X179995000Y-135250000D03*
D14*
X185075000Y-135250000D03*
D13*
X190155000Y-135250000D03*
D15*
X187615000Y-130170000D03*
X181265000Y-132710000D03*
%TD*%
D11*
%TO.C,D51*%
X62525000Y-82600000D03*
X65500000Y-82600000D03*
%TD*%
D13*
%TO.C,SW6*%
X115870000Y-78000000D03*
D14*
X120950000Y-78000000D03*
D13*
X126030000Y-78000000D03*
D15*
X123490000Y-72920000D03*
X117140000Y-75460000D03*
%TD*%
D13*
%TO.C,SW41*%
X118245000Y-135250000D03*
D14*
X123325000Y-135250000D03*
D13*
X128405000Y-135250000D03*
D15*
X125865000Y-130170000D03*
X119515000Y-132710000D03*
%TD*%
D11*
%TO.C,D72*%
X219225000Y-101600000D03*
X222200000Y-101600000D03*
%TD*%
D13*
%TO.C,SW31*%
X149120000Y-116000000D03*
D14*
X154200000Y-116000000D03*
D13*
X159280000Y-116000000D03*
D15*
X156740000Y-110920000D03*
X150390000Y-113460000D03*
%TD*%
D13*
%TO.C,SW20*%
X158620000Y-97000000D03*
D14*
X163700000Y-97000000D03*
D13*
X168780000Y-97000000D03*
D15*
X166240000Y-91920000D03*
X159890000Y-94460000D03*
%TD*%
D13*
%TO.C,SW19*%
X139620000Y-97000000D03*
D14*
X144700000Y-97000000D03*
D13*
X149780000Y-97000000D03*
D15*
X147240000Y-91920000D03*
X140890000Y-94460000D03*
%TD*%
D11*
%TO.C,D77*%
X95625000Y-120700000D03*
X98600000Y-120700000D03*
%TD*%
%TO.C,D83*%
X209825000Y-120500000D03*
X212800000Y-120500000D03*
%TD*%
D16*
%TO.C,C2*%
X265400000Y-73500000D03*
X265400000Y-70375000D03*
%TD*%
D13*
%TO.C,SW44*%
X248870000Y-78000000D03*
D14*
X253950000Y-78000000D03*
D13*
X259030000Y-78000000D03*
D15*
X256490000Y-72920000D03*
X250140000Y-75460000D03*
%TD*%
D11*
%TO.C,D79*%
X133625000Y-120600000D03*
X136600000Y-120600000D03*
%TD*%
D15*
%TO.C,REF\u002A\u002A*%
X168300000Y-86400000D03*
%TD*%
D13*
%TO.C,SW24*%
X241745000Y-97000000D03*
D14*
X246825000Y-97000000D03*
D13*
X251905000Y-97000000D03*
D15*
X249365000Y-91920000D03*
X243015000Y-94460000D03*
%TD*%
D13*
%TO.C,SW21*%
X177620000Y-97000000D03*
D14*
X182700000Y-97000000D03*
D13*
X187780000Y-97000000D03*
D15*
X185240000Y-91920000D03*
X178890000Y-94460000D03*
%TD*%
D11*
%TO.C,D69*%
X162125000Y-101600000D03*
X165100000Y-101600000D03*
%TD*%
D13*
%TO.C,SW34*%
X206120000Y-116000000D03*
D14*
X211200000Y-116000000D03*
D13*
X216280000Y-116000000D03*
D15*
X213740000Y-110920000D03*
X207390000Y-113460000D03*
%TD*%
D13*
%TO.C,SW15*%
X63620000Y-97000000D03*
D14*
X68700000Y-97000000D03*
D13*
X73780000Y-97000000D03*
D15*
X71240000Y-91920000D03*
X64890000Y-94460000D03*
%TD*%
D13*
%TO.C,SW13*%
X22920000Y-97000000D03*
D14*
X28000000Y-97000000D03*
D13*
X33080000Y-97000000D03*
D15*
X30540000Y-91920000D03*
X24190000Y-94460000D03*
%TD*%
D13*
%TO.C,SW12*%
X229870000Y-78000000D03*
D14*
X234950000Y-78000000D03*
D13*
X240030000Y-78000000D03*
D15*
X237490000Y-72920000D03*
X231140000Y-75460000D03*
%TD*%
D11*
%TO.C,D52*%
X81525000Y-82600000D03*
X84500000Y-82600000D03*
%TD*%
%TO.C,D54*%
X119425000Y-82500000D03*
X122400000Y-82500000D03*
%TD*%
D17*
%TO.C,R19*%
X275400000Y-83700000D03*
X275400000Y-86625000D03*
%TD*%
D15*
%TO.C,REF\u002A\u002A*%
X78200000Y-93300000D03*
%TD*%
D13*
%TO.C,SW17*%
X101620000Y-97000000D03*
D14*
X106700000Y-97000000D03*
D13*
X111780000Y-97000000D03*
D15*
X109240000Y-91920000D03*
X102890000Y-94460000D03*
%TD*%
D17*
%TO.C,R16*%
X269900000Y-83700000D03*
X269900000Y-86625000D03*
%TD*%
D11*
%TO.C,D57*%
X176525000Y-82600000D03*
X179500000Y-82600000D03*
%TD*%
%TO.C,D75*%
X57525000Y-120700000D03*
X60500000Y-120700000D03*
%TD*%
%TO.C,D90*%
X121825000Y-139900000D03*
X124800000Y-139900000D03*
%TD*%
D13*
%TO.C,SW38*%
X44620000Y-135250000D03*
D14*
X49700000Y-135250000D03*
D13*
X54780000Y-135250000D03*
D15*
X52240000Y-130170000D03*
X45890000Y-132710000D03*
%TD*%
%TO.C,REF\u002A\u002A*%
X19800000Y-111500000D03*
%TD*%
D11*
%TO.C,D65*%
X86225000Y-101600000D03*
X89200000Y-101600000D03*
%TD*%
%TO.C,D70*%
X181225000Y-101600000D03*
X184200000Y-101600000D03*
%TD*%
%TO.C,D71*%
X200225000Y-101600000D03*
X203200000Y-101600000D03*
%TD*%
D13*
%TO.C,SW46*%
X203745000Y-135000000D03*
D14*
X208825000Y-135000000D03*
D13*
X213905000Y-135000000D03*
D15*
X211365000Y-129920000D03*
X205015000Y-132460000D03*
%TD*%
D13*
%TO.C,SW45*%
X225120000Y-135000000D03*
D14*
X230200000Y-135000000D03*
D13*
X235280000Y-135000000D03*
D15*
X232740000Y-129920000D03*
X226390000Y-132460000D03*
%TD*%
D11*
%TO.C,D91*%
X155125000Y-139900000D03*
X158100000Y-139900000D03*
%TD*%
%TO.C,D64*%
X67125000Y-101600000D03*
X70100000Y-101600000D03*
%TD*%
%TO.C,D73*%
X245312500Y-101600000D03*
X248287500Y-101600000D03*
%TD*%
D13*
%TO.C,SW35*%
X225120000Y-116000000D03*
D14*
X230200000Y-116000000D03*
D13*
X235280000Y-116000000D03*
D15*
X232740000Y-110920000D03*
X226390000Y-113460000D03*
%TD*%
D13*
%TO.C,SW48*%
X246495000Y-135000000D03*
D14*
X251575000Y-135000000D03*
D13*
X256655000Y-135000000D03*
D15*
X254115000Y-129920000D03*
X247765000Y-132460000D03*
%TD*%
D13*
%TO.C,SW39*%
X65995000Y-135250000D03*
D14*
X71075000Y-135250000D03*
D13*
X76155000Y-135250000D03*
D15*
X73615000Y-130170000D03*
X67265000Y-132710000D03*
%TD*%
D11*
%TO.C,D55*%
X138525000Y-82600000D03*
X141500000Y-82600000D03*
%TD*%
%TO.C,D78*%
X114825000Y-120700000D03*
X117800000Y-120700000D03*
%TD*%
%TO.C,D76*%
X76625000Y-120600000D03*
X79600000Y-120600000D03*
%TD*%
D15*
%TO.C,REF\u002A\u002A*%
X241600000Y-113900000D03*
%TD*%
D11*
%TO.C,D81*%
X171600000Y-120500000D03*
X174575000Y-120500000D03*
%TD*%
D13*
%TO.C,SW18*%
X120620000Y-97000000D03*
D14*
X125700000Y-97000000D03*
D13*
X130780000Y-97000000D03*
D15*
X128240000Y-91920000D03*
X121890000Y-94460000D03*
%TD*%
D11*
%TO.C,D48*%
X24400000Y-82500000D03*
X27375000Y-82500000D03*
%TD*%
%TO.C,D92*%
X183525000Y-139900000D03*
X186500000Y-139900000D03*
%TD*%
%TO.C,D56*%
X157500000Y-82600000D03*
X160475000Y-82600000D03*
%TD*%
D13*
%TO.C,SW11*%
X210870000Y-78000000D03*
D14*
X215950000Y-78000000D03*
D13*
X221030000Y-78000000D03*
D15*
X218490000Y-72920000D03*
X212140000Y-75460000D03*
%TD*%
D13*
%TO.C,SW33*%
X187120000Y-116000000D03*
D14*
X192200000Y-116000000D03*
D13*
X197280000Y-116000000D03*
D15*
X194740000Y-110920000D03*
X188390000Y-113460000D03*
%TD*%
D13*
%TO.C,SW9*%
X172870000Y-78000000D03*
D14*
X177950000Y-78000000D03*
D13*
X183030000Y-78000000D03*
D15*
X180490000Y-72920000D03*
X174140000Y-75460000D03*
%TD*%
D13*
%TO.C,SW10*%
X191870000Y-78000000D03*
D14*
X196950000Y-78000000D03*
D13*
X202030000Y-78000000D03*
D15*
X199490000Y-72920000D03*
X193140000Y-75460000D03*
%TD*%
D13*
%TO.C,SW36*%
X246495000Y-116000000D03*
D14*
X251575000Y-116000000D03*
D13*
X256655000Y-116000000D03*
D15*
X254115000Y-110920000D03*
X247765000Y-113460000D03*
%TD*%
D11*
%TO.C,D93*%
X207225000Y-139800000D03*
X210200000Y-139800000D03*
%TD*%
D13*
%TO.C,SW40*%
X89745000Y-135250000D03*
D14*
X94825000Y-135250000D03*
D13*
X99905000Y-135250000D03*
D15*
X97365000Y-130170000D03*
X91015000Y-132710000D03*
%TD*%
%TO.C,REF\u002A\u002A*%
X148300000Y-106400000D03*
%TD*%
D13*
%TO.C,SW5*%
X96870000Y-78000000D03*
D14*
X101950000Y-78000000D03*
D13*
X107030000Y-78000000D03*
D15*
X104490000Y-72920000D03*
X98140000Y-75460000D03*
%TD*%
D11*
%TO.C,D63*%
X48325000Y-101600000D03*
X51300000Y-101600000D03*
%TD*%
D13*
%TO.C,SW14*%
X44620000Y-97025000D03*
D14*
X49700000Y-97025000D03*
D13*
X54780000Y-97025000D03*
D15*
X52240000Y-91945000D03*
X45890000Y-94485000D03*
%TD*%
D13*
%TO.C,SW32*%
X168120000Y-116000000D03*
D14*
X173200000Y-116000000D03*
D13*
X178280000Y-116000000D03*
D15*
X175740000Y-110920000D03*
X169390000Y-113460000D03*
%TD*%
D11*
%TO.C,D53*%
X100425000Y-82500000D03*
X103400000Y-82500000D03*
%TD*%
%TO.C,D67*%
X124425000Y-101600000D03*
X127400000Y-101600000D03*
%TD*%
%TO.C,D84*%
X228725000Y-120500000D03*
X231700000Y-120500000D03*
%TD*%
D15*
%TO.C,REF\u002A\u002A*%
X83200000Y-134400000D03*
%TD*%
D13*
%TO.C,SW27*%
X73120000Y-116000000D03*
D14*
X78200000Y-116000000D03*
D13*
X83280000Y-116000000D03*
D15*
X80740000Y-110920000D03*
X74390000Y-113460000D03*
%TD*%
D11*
%TO.C,D82*%
X190725000Y-120500000D03*
X193700000Y-120500000D03*
%TD*%
D15*
%TO.C,REF\u002A\u002A*%
X35200000Y-71000000D03*
%TD*%
D13*
%TO.C,SW7*%
X134870000Y-78000000D03*
D14*
X139950000Y-78000000D03*
D13*
X145030000Y-78000000D03*
D15*
X142490000Y-72920000D03*
X136140000Y-75460000D03*
%TD*%
D13*
%TO.C,SW29*%
X111120000Y-116000000D03*
D14*
X116200000Y-116000000D03*
D13*
X121280000Y-116000000D03*
D15*
X118740000Y-110920000D03*
X112390000Y-113460000D03*
%TD*%
%TO.C,REF\u002A\u002A*%
X266100000Y-79500000D03*
%TD*%
D13*
%TO.C,SW25*%
X27995000Y-116150000D03*
D14*
X33075000Y-116150000D03*
D13*
X38155000Y-116150000D03*
D15*
X35615000Y-111070000D03*
X29265000Y-113610000D03*
%TD*%
D11*
%TO.C,D68*%
X143225000Y-101600000D03*
X146200000Y-101600000D03*
%TD*%
%TO.C,D86*%
X26825000Y-139900000D03*
X29800000Y-139900000D03*
%TD*%
%TO.C,D85*%
X250025000Y-120600000D03*
X253000000Y-120600000D03*
%TD*%
D15*
%TO.C,REF\u002A\u002A*%
X264600000Y-132800000D03*
%TD*%
D17*
%TO.C,R17*%
X272800000Y-83700000D03*
X272800000Y-86625000D03*
%TD*%
D13*
%TO.C,SW2*%
X39870000Y-78000000D03*
D14*
X44950000Y-78000000D03*
D13*
X50030000Y-78000000D03*
D15*
X47490000Y-72920000D03*
X41140000Y-75460000D03*
%TD*%
D13*
%TO.C,SW28*%
X92120000Y-116000000D03*
D14*
X97200000Y-116000000D03*
D13*
X102280000Y-116000000D03*
D15*
X99740000Y-110920000D03*
X93390000Y-113460000D03*
%TD*%
D13*
%TO.C,SW23*%
X215620000Y-97000000D03*
D14*
X220700000Y-97000000D03*
D13*
X225780000Y-97000000D03*
D15*
X223240000Y-91920000D03*
X216890000Y-94460000D03*
%TD*%
D17*
%TO.C,R18*%
X267300000Y-83800000D03*
X267300000Y-86725000D03*
%TD*%
D11*
%TO.C,D59*%
X214625000Y-82600000D03*
X217600000Y-82600000D03*
%TD*%
D13*
%TO.C,SW3*%
X58870000Y-78000000D03*
D14*
X63950000Y-78000000D03*
D13*
X69030000Y-78000000D03*
D15*
X66490000Y-72920000D03*
X60140000Y-75460000D03*
%TD*%
D11*
%TO.C,D87*%
X48025000Y-139900000D03*
X51000000Y-139900000D03*
%TD*%
%TO.C,D58*%
X195525000Y-82600000D03*
X198500000Y-82600000D03*
%TD*%
%TO.C,D88*%
X69525000Y-139900000D03*
X72500000Y-139900000D03*
%TD*%
D18*
%TO.C,J1*%
X276520000Y-70575000D03*
X267880000Y-70575000D03*
D19*
X276520000Y-74575000D03*
X267880000Y-74575000D03*
%TD*%
D13*
%TO.C,SW4*%
X77870000Y-78000000D03*
D14*
X82950000Y-78000000D03*
D13*
X88030000Y-78000000D03*
D15*
X85490000Y-72920000D03*
X79140000Y-75460000D03*
%TD*%
%TO.C,REF\u002A\u002A*%
X45900000Y-112700000D03*
%TD*%
D13*
%TO.C,SW22*%
X196620000Y-97000000D03*
D14*
X201700000Y-97000000D03*
D13*
X206780000Y-97000000D03*
D15*
X204240000Y-91920000D03*
X197890000Y-94460000D03*
%TD*%
D20*
%TO.C,U1*%
X273900000Y-138800000D03*
D21*
X273900000Y-141340000D03*
X271360000Y-138800000D03*
X271360000Y-141340000D03*
X268820000Y-138800000D03*
X268820000Y-141340000D03*
%TD*%
D15*
%TO.C,REF\u002A\u002A*%
X138200000Y-133100000D03*
%TD*%
D11*
%TO.C,D62*%
X26425000Y-101600000D03*
X29400000Y-101600000D03*
%TD*%
%TO.C,D50*%
X250100000Y-139700000D03*
X253075000Y-139700000D03*
%TD*%
%TO.C,D61*%
X252525000Y-82600000D03*
X255500000Y-82600000D03*
%TD*%
%TO.C,D80*%
X152825000Y-120500000D03*
X155800000Y-120500000D03*
%TD*%
%TO.C,D49*%
X43400000Y-82500000D03*
X46375000Y-82500000D03*
%TD*%
D12*
%TO.C,J4*%
X267200000Y-93900000D03*
X268500000Y-93900000D03*
%TD*%
D11*
%TO.C,D94*%
X228725000Y-139700000D03*
X231700000Y-139700000D03*
%TD*%
%TO.C,D74*%
X31525000Y-120900000D03*
X34500000Y-120900000D03*
%TD*%
D13*
%TO.C,SW1*%
X20870000Y-78000000D03*
D14*
X25950000Y-78000000D03*
D13*
X31030000Y-78000000D03*
D15*
X28490000Y-72920000D03*
X22140000Y-75460000D03*
%TD*%
D13*
%TO.C,SW43*%
X151495000Y-135250000D03*
D14*
X156575000Y-135250000D03*
D13*
X161655000Y-135250000D03*
D15*
X159115000Y-130170000D03*
X152765000Y-132710000D03*
%TD*%
D13*
%TO.C,SW16*%
X82620000Y-97000000D03*
D14*
X87700000Y-97000000D03*
D13*
X92780000Y-97000000D03*
D15*
X90240000Y-91920000D03*
X83890000Y-94460000D03*
%TD*%
D13*
%TO.C,SW30*%
X130120000Y-116000000D03*
D14*
X135200000Y-116000000D03*
D13*
X140280000Y-116000000D03*
D15*
X137740000Y-110920000D03*
X131390000Y-113460000D03*
%TD*%
D11*
%TO.C,D66*%
X105125000Y-101600000D03*
X108100000Y-101600000D03*
%TD*%
D13*
%TO.C,SW37*%
X23245000Y-135250000D03*
D14*
X28325000Y-135250000D03*
D13*
X33405000Y-135250000D03*
D15*
X30865000Y-130170000D03*
X24515000Y-132710000D03*
%TD*%
D13*
%TO.C,SW26*%
X54120000Y-116000000D03*
D14*
X59200000Y-116000000D03*
D13*
X64280000Y-116000000D03*
D15*
X61740000Y-110920000D03*
X55390000Y-113460000D03*
%TD*%
D22*
X267900000Y-104400000D03*
D23*
X274500000Y-71500000D03*
D22*
X264900000Y-124100000D03*
X194600000Y-86900000D03*
X148800000Y-86900000D03*
X39300000Y-134900000D03*
X264100000Y-76200000D03*
X233200000Y-98500000D03*
X98500000Y-81900000D03*
X58800000Y-86800000D03*
X87300000Y-113500000D03*
X127400000Y-124800000D03*
X60700000Y-135200000D03*
X265500000Y-95100000D03*
X271500000Y-112100000D03*
X266800000Y-108000000D03*
X244200000Y-79600000D03*
X106800000Y-113600000D03*
X96800000Y-94400000D03*
X141400000Y-136100000D03*
X28400000Y-105400000D03*
X193000000Y-81400000D03*
X135300000Y-93600000D03*
X271100000Y-127900000D03*
X225400000Y-78900000D03*
X116900000Y-86800000D03*
X55600000Y-80200000D03*
X156800000Y-82300000D03*
X259200000Y-104400000D03*
X87800000Y-105700000D03*
X265600000Y-92000000D03*
X173100000Y-94300000D03*
X172500000Y-134700000D03*
X239600000Y-113100000D03*
X30600000Y-124600000D03*
X236200000Y-106700000D03*
X219800000Y-134100000D03*
X173700000Y-81500000D03*
X268700000Y-99000000D03*
X268700000Y-103800000D03*
X272600000Y-134000000D03*
X262400000Y-93700000D03*
X275700000Y-132550000D03*
X276400000Y-97800000D03*
X275300000Y-99700000D03*
X256800000Y-89300000D03*
X256300000Y-126300000D03*
X251100000Y-82200000D03*
X252200000Y-87300000D03*
X256200000Y-102300000D03*
X258500000Y-110300000D03*
X95000000Y-81700000D03*
X108900000Y-119900000D03*
X248100000Y-110100000D03*
X99100000Y-98100000D03*
X257500000Y-100100000D03*
X100700000Y-101700000D03*
X229900000Y-93500000D03*
X131000000Y-78600000D03*
X135900000Y-97900000D03*
X146200000Y-119900000D03*
X133100000Y-82400000D03*
X239900000Y-94200000D03*
X135900000Y-101100000D03*
X111500000Y-78400000D03*
X116900000Y-97000000D03*
X119200000Y-101100000D03*
X113600000Y-82300000D03*
X247500000Y-105200000D03*
X231900000Y-94000000D03*
X41700000Y-82800000D03*
X44600000Y-99400000D03*
X49900000Y-119800000D03*
X60140000Y-82000000D03*
X69700000Y-120000000D03*
X63700000Y-101400000D03*
X263500000Y-129100000D03*
X266300000Y-126300000D03*
X75100000Y-78400000D03*
X83700000Y-101700000D03*
X76100000Y-82400000D03*
X89600000Y-119500000D03*
X151100000Y-78500000D03*
X155400000Y-97800000D03*
X155500000Y-101200000D03*
X152700000Y-82600000D03*
X254000000Y-95800000D03*
X228300000Y-104300000D03*
X174300000Y-97700000D03*
X254200000Y-104100000D03*
X171100000Y-82100000D03*
X255500000Y-95100000D03*
X169100000Y-78600000D03*
X184000000Y-120100000D03*
X192600000Y-106200000D03*
X175600000Y-101400000D03*
X241100000Y-107000000D03*
X249700000Y-89500000D03*
X203000000Y-119800000D03*
X191700000Y-93200000D03*
X194100000Y-100900000D03*
X243000000Y-85700000D03*
X189200000Y-82500000D03*
X209600000Y-86100000D03*
X189200000Y-79200000D03*
X221900000Y-119700000D03*
X208700000Y-79000000D03*
X250300000Y-88500000D03*
X213400000Y-101500000D03*
X213100000Y-97600000D03*
X232800000Y-87000000D03*
X245100000Y-87000000D03*
X209600000Y-82600000D03*
X241600000Y-119700000D03*
X269500000Y-102700000D03*
X242000000Y-100600000D03*
X230600000Y-82700000D03*
X272400000Y-72500000D03*
X271800000Y-73600000D03*
X273100000Y-89200000D03*
X273800000Y-89800000D03*
X32800000Y-80500000D03*
X50600000Y-81000000D03*
X255300000Y-137800000D03*
X70500000Y-80800000D03*
X89300000Y-80800000D03*
X107900000Y-80700000D03*
X126900000Y-80700000D03*
X145900000Y-81000000D03*
X165000000Y-80900000D03*
X184100000Y-81100000D03*
X202800000Y-81100000D03*
X221700000Y-81000000D03*
X240400000Y-81100000D03*
X256600000Y-81100000D03*
X31500000Y-99900000D03*
X53400000Y-100200000D03*
X72600000Y-100100000D03*
X91700000Y-100000000D03*
X110000000Y-100000000D03*
X129400000Y-100100000D03*
X148500000Y-100000000D03*
X167200000Y-100100000D03*
X187000000Y-99800000D03*
X206300000Y-99700000D03*
X223800000Y-100500000D03*
X249700000Y-101700000D03*
X37400000Y-119100000D03*
X62700000Y-119100000D03*
X81500000Y-118700000D03*
X100900000Y-118700000D03*
X119900000Y-118800000D03*
X138900000Y-118800000D03*
X157700000Y-118700000D03*
X176000000Y-120600000D03*
X195200000Y-120500000D03*
X214300000Y-120600000D03*
X233200000Y-120500000D03*
X254500000Y-120600000D03*
X31400000Y-138500000D03*
X53200000Y-138100000D03*
X74600000Y-138100000D03*
X98500000Y-138200000D03*
X126800000Y-138200000D03*
X160200000Y-138100000D03*
X188700000Y-138100000D03*
X212300000Y-138000000D03*
X234000000Y-137800000D03*
X35700000Y-129700000D03*
X40700000Y-105900000D03*
X230400000Y-103000000D03*
X40700000Y-109400000D03*
X35900000Y-86900000D03*
X240800000Y-103100000D03*
X35900000Y-89900000D03*
X35800000Y-125100000D03*
M02*
